<svg fill="#f88c61" height="24" viewBox="0 0 24 24" width="24" xmlns="http://www.w3.org/2000/svg">
	<g transform="matrix(0.28776978,0,0,0.28776978,-112.05755,-94.705034)">
		<path d="M0 0h24v24H0V0z" fill="none"/>
		<path d="m 465.8,367.4 c -0.2,0.2 -0.6,0.3 -0.9,0.3 h -7.1 c -0.3,0 -0.5,-0.2 -0.6,-0.5 -0.7,-4.6 -2.5,-8.8 -5.3,-12.3 -0.2,-0.2 -0.2,-0.6 0,-0.7 l 5.2,-5.2 c 0.2,-0.2 0.6,-0.3 0.9,-0.4 0.8,-0.1 1.5,-0.4 2.2,-0.9 0.2,-0.2 0.5,-0.5 0.7,-0.7 1.2,-1.6 1.2,-3.8 0,-5.3 -0.2,-0.2 -0.5,-0.5 -0.7,-0.7 -1.6,-1.2 -3.8,-1.2 -5.3,0 -0.2,0.2 -0.5,0.5 -0.7,0.7 -0.5,0.6 -0.8,1.4 -0.9,2.2 0,0.3 -0.2,0.7 -0.4,0.9 l -5.2,5.2 c -0.2,0.2 -0.5,0.2 -0.7,0 -3.5,-2.6 -7.7,-4.4 -12.3,-5 -0.3,0 -0.5,-0.3 -0.5,-0.6 V 337 c 0,-0.3 0.2,-0.7 0.3,-0.9 0.6,-0.7 0.9,-1.7 0.9,-2.7 0,-2.4 -1.9,-4.3 -4.3,-4.3 -2.4,0 -4.3,1.9 -4.3,4.3 0,1 0.4,2 1,2.7 0.2,0.2 0.3,0.6 0.3,0.9 v 7.4 c 0,0.3 -0.2,0.5 -0.5,0.6 -4.6,0.6 -8.8,2.4 -12.3,5 -0.2,0.2 -0.6,0.1 -0.7,0 l -5.2,-5.2 c -0.2,-0.2 -0.3,-0.6 -0.4,-0.9 -0.1,-0.9 -0.5,-1.8 -1.2,-2.6 -1.6,-1.6 -4,-1.7 -5.7,-0.3 -0.2,0.2 -0.5,0.5 -0.7,0.7 -1.2,1.6 -1.2,3.8 0,5.3 0.2,0.2 0.5,0.5 0.7,0.7 0.7,0.5 1.4,0.8 2.2,0.9 0.3,0 0.7,0.2 0.9,0.4 l 5.1,5.1 c 0.2,0.2 0.2,0.5 0,0.7 -2.7,3.5 -4.6,7.7 -5.3,12.3 0,0.3 -0.3,0.5 -0.6,0.5 h -7.1 c -0.3,0 -0.7,-0.2 -0.9,-0.3 -0.7,-0.6 -1.7,-0.9 -2.7,-0.9 -2.4,0 -4.3,1.9 -4.3,4.3 0,2.4 1.9,4.3 4.3,4.3 1,0 2,-0.4 2.7,-1 0.2,-0.2 0.6,-0.3 0.9,-0.3 h 7 c 0.3,0 0.5,0.2 0.6,0.5 0.6,4.7 2.4,9 5.1,12.6 0.2,0.2 0.1,0.6 0,0.8 l -4.9,4.9 c -0.2,0.2 -0.6,0.3 -0.9,0.4 -0.8,0.1 -1.5,0.4 -2.2,0.9 -0.2,0.2 -0.5,0.5 -0.7,0.7 -1.2,1.6 -1.2,3.8 0,5.3 0.2,0.2 0.5,0.5 0.7,0.7 1.6,1.2 3.8,1.2 5.3,0 0.2,-0.2 0.5,-0.5 0.7,-0.7 0.5,-0.7 0.8,-1.4 0.9,-2.2 0,-0.3 0.2,-0.7 0.4,-0.9 l 4.8,-4.8 c 0.2,-0.2 0.5,-0.2 0.7,0 3.6,2.8 7.9,4.7 12.7,5.3 0.3,0 0.5,0.3 0.5,0.6 v 6.8 c 0,0.3 -0.2,0.7 -0.3,0.9 -0.6,0.7 -0.9,1.7 -0.9,2.7 0,2.4 1.9,4.3 4.3,4.3 2.4,0 4.3,-1.9 4.3,-4.3 0,-1 -0.4,-1.9 -0.9,-2.7 -0.2,-0.2 -0.3,-0.6 -0.3,-0.9 v -6.8 c 0,-0.3 0.2,-0.5 0.5,-0.6 4.7,-0.6 9.1,-2.5 12.7,-5.3 0.2,-0.2 0.5,-0.2 0.7,0 l 4.8,4.8 c 0.2,0.2 0.3,0.6 0.4,0.9 0.1,0.9 0.5,1.8 1.2,2.6 1.7,1.7 4.4,1.7 6.1,0 1.7,-1.7 1.7,-4.4 0,-6.1 -0.7,-0.7 -1.6,-1.1 -2.6,-1.2 -0.3,0 -0.7,-0.2 -0.9,-0.4 l -4.9,-4.9 c -0.2,-0.2 -0.2,-0.5 0,-0.7 2.7,-3.6 4.5,-7.9 5.1,-12.6 0,-0.3 0.3,-0.5 0.6,-0.5 h 7 c 0.3,0 0.7,0.2 0.9,0.3 0.7,0.6 1.7,0.9 2.7,0.9 2.4,0 4.3,-1.9 4.3,-4.3 0,-2.4 -1.9,-4.3 -4.3,-4.3 -1,0.1 -2,0.4 -2.7,1 z m -15.1,0.4 h -9.4 c -0.3,0 -0.6,-0.2 -0.7,-0.5 -0.1,-0.3 -0.2,-0.5 -0.3,-0.8 -0.1,-0.2 -0.1,-0.6 0.1,-0.8 l 6.5,-6.5 c 0.2,-0.2 0.5,-0.2 0.7,0 1.7,2.4 2.9,5.1 3.5,8 0.1,0.3 -0.1,0.6 -0.4,0.6 z m -19.5,7.5 c -2.3,0 -4.3,-1.9 -4.3,-4.3 0,-2.4 1.9,-4.3 4.3,-4.3 2.4,0 4.3,1.9 4.3,4.3 0,2.4 -2,4.3 -4.3,4.3 z m 11.5,-20.3 -6.6,6.6 c -0.2,0.2 -0.6,0.3 -0.8,0.1 -0.2,-0.1 -0.4,-0.2 -0.7,-0.3 -0.3,-0.1 -0.5,-0.4 -0.5,-0.7 v -9.3 c 0,-0.3 0.2,-0.5 0.5,-0.4 2.9,0.5 5.6,1.6 8,3.3 0.3,0.2 0.3,0.5 0.1,0.7 z m -14.5,-3.5 v 9.3 c 0,0.3 -0.2,0.6 -0.5,0.7 -0.2,0.1 -0.5,0.2 -0.7,0.3 -0.3,0.1 -0.6,0.1 -0.8,-0.1 l -6.6,-6.6 c -0.2,-0.2 -0.2,-0.5 0.1,-0.6 2.4,-1.6 5.1,-2.8 8,-3.3 0.3,-0.2 0.5,0 0.5,0.3 z m -12.8,7.7 6.5,6.5 c 0.2,0.2 0.2,0.5 0.1,0.8 -0.1,0.3 -0.2,0.5 -0.4,0.8 -0.1,0.3 -0.4,0.5 -0.7,0.5 h -9.4 c -0.3,0 -0.5,-0.2 -0.4,-0.5 0.6,-3 1.8,-5.7 3.5,-8.1 0.3,-0.2 0.6,-0.2 0.8,0 z m -3.9,14.6 h 9.3 c 0.3,0 0.6,0.2 0.6,0.5 0.1,0.3 0.2,0.7 0.4,1 0.1,0.3 0.1,0.6 -0.1,0.8 l -6.6,6.6 c -0.2,0.2 -0.5,0.2 -0.6,-0.1 -1.7,-2.4 -2.8,-5.3 -3.3,-8.3 -0.1,-0.3 0.1,-0.5 0.3,-0.5 z m 7.8,13.1 6.5,-6.5 c 0.2,-0.2 0.5,-0.2 0.8,-0.1 0.4,0.2 0.7,0.3 1.1,0.5 0.3,0.1 0.5,0.4 0.5,0.7 v 9.3 c 0,0.3 -0.2,0.5 -0.5,0.4 -3.1,-0.5 -5.9,-1.8 -8.4,-3.5 -0.2,-0.3 -0.2,-0.6 0,-0.8 z m 14.9,3.8 v -9.3 c 0,-0.3 0.2,-0.6 0.5,-0.7 0.4,-0.1 0.7,-0.3 1.1,-0.5 0.2,-0.1 0.6,-0.1 0.8,0.1 l 6.5,6.5 c 0.2,0.2 0.2,0.5 0,0.7 -2.4,1.8 -5.3,3 -8.4,3.5 -0.3,0.1 -0.5,-0.1 -0.5,-0.3 z m 13.1,-8.1 -6.6,-6.6 c -0.2,-0.2 -0.3,-0.6 -0.1,-0.8 0.1,-0.3 0.3,-0.6 0.4,-1 0.1,-0.3 0.4,-0.5 0.6,-0.5 h 9.3 c 0.3,0 0.5,0.2 0.4,0.5 -0.5,3 -1.6,5.9 -3.3,8.3 -0.2,0.3 -0.5,0.3 -0.7,0.1 z"/>
	</g>
</svg>